<?xml version="1.0" encoding="UTF-8"?>
<svg id="Layer_1" data-name="Layer 1" xmlns="http://www.w3.org/2000/svg" viewBox="0 0 419.53 595.28">
  <defs>
    <style>
      .cls-1 {
        fill: #fff;
        stroke-width: 0px;
      }
    </style>
  </defs>
  <path class="cls-1" d="M365.89,287.54c.02,12.46-1.55,24.7-4.59,36.79-4.11,16.37-10.84,31.63-19.52,46.05-.5.83-.52,1.36.01,2.19,4.88,7.55,10.07,14.91,14.43,22.78,4.93,8.9,9.66,17.91,12.21,27.83,1.33,5.16,2.26,10.45.88,15.79-1.25,4.82-4.54,7.65-9.26,8.83-4.24,1.06-8.5.5-12.68-.39-10.04-2.14-19.14-6.65-28.11-11.45-8.62-4.62-16.69-10.13-24.8-15.56-.95-.64-1.59-.67-2.58-.07-10.55,6.36-21.6,11.7-33.25,15.69-11.81,4.05-23.91,6.74-36.38,7.81-8.43.72-16.85.79-25.26.16-10.4-.77-20.62-2.63-30.71-5.32-9.76-2.6-19.18-6.04-28.26-10.45-11.5-5.58-22.11-12.52-31.8-20.86-15.98-13.77-28.79-30.04-38.54-48.73-5.34-10.25-9.47-20.97-12.4-32.13-2.83-10.8-4.39-21.8-4.91-32.97-.51-10.94.23-21.79,1.97-32.57,1.53-9.47,3.98-18.73,7.23-27.77,5-13.87,11.71-26.84,20.41-38.76,8.34-11.43,18.08-21.53,28.96-30.52,10.72-8.86,22.44-16.15,35.16-21.77,10.7-4.72,21.81-8.15,33.32-10.34,12.04-2.29,24.17-3.36,36.41-3.04,11.36.3,22.55,1.87,33.58,4.7,22.9,5.87,43.11,16.94,61.32,31.79,15.42,12.57,28.06,27.51,37.62,45.01,6.18,11.31,10.81,23.22,14.06,35.67,2.76,10.56,4.53,21.29,5.18,32.2.19,3.15.18,6.3.27,9.44ZM248.3,383.63c-.55-.65-1.01-1.27-1.54-1.82-3.88-3.99-7.76-7.98-11.67-11.94-11.97-12.17-23.93-24.34-34.43-37.87-13.08-16.85-24.88-34.51-34.85-53.37-7.37-13.92-13.62-28.33-17.98-43.5-.96-3.35-1.96-6.69-2.38-10.16-.06-.47-.33-1.2.38-1.38.68-.17.63.6.81.99,1.46,3.11,2.27,6.48,3.78,9.57,6.34,12.96,14.55,24.72,23.26,36.15,9.56,12.54,19.54,24.73,30.31,36.25,10.14,10.84,19.9,22.03,30.75,32.19,8.54,7.99,16.69,16.42,25.53,24.07,10.67,9.24,21.71,18.04,32.86,26.7,10.44,8.1,21.41,15.41,33.26,21.32,4.94,2.46,9.88,4.95,15.53,5.37,2.32.17,4.61.04,6.43-1.63,2.68-2.46,2.68-5.74,1.8-8.77-1.58-5.43-3.57-10.74-6.22-15.77-5.64-10.68-12.53-20.55-19.82-30.14-6.73-8.85-13.3-17.83-20.45-26.35-.43-.51-.76-.99-.48-1.81,1.81-5.42,3.57-10.85,5.28-16.29,3.43-10.9,4.98-22.05,4.52-33.5-.47-11.78-2.93-23.14-7.28-34.05-7.86-19.71-20.61-35.67-38.01-47.77-12.72-8.85-26.77-14.6-42.11-17.19-11-1.85-21.99-1.99-32.98-.36-12.02,1.78-23.38,5.65-34.11,11.37-12.81,6.83-23.6,16.02-32.66,27.36-9.74,12.19-16.34,25.89-20,40.99-2.39,9.84-3.35,19.85-2.73,29.99.41,6.78,1.35,13.48,3.04,20.06,1.71,6.68,4.13,13.09,7.1,19.3,4.8,10.01,10.77,19.25,18.54,27.2,12.18,12.47,26.33,21.92,42.97,27.48,7.66,2.56,15.51,4.21,23.53,4.94,10.68.98,21.28.12,31.79-1.99,6.23-1.25,12.24-3.19,18.23-5.65Z"/>
</svg>